<svg width="32" height="32" viewBox="0 0 32 32" fill="none" xmlns="http://www.w3.org/2000/svg">
<rect width="32" height="32" rx="5" fill="#5B524B"/>
<rect width="16" height="16" transform="translate(8 8)" fill="#5B524B"/>
<path d="M8 9.5C8 9.36739 8.05268 9.24021 8.14645 9.14645C8.24021 9.05268 8.36739 9 8.5 9H10C10.1115 9.00003 10.2199 9.03735 10.3077 9.10602C10.3956 9.1747 10.458 9.27078 10.485 9.379L10.89 11H22.5C22.5734 11.0001 22.6459 11.0163 22.7124 11.0476C22.7788 11.0788 22.8375 11.1243 22.8844 11.1808C22.9313 11.2373 22.9651 11.3035 22.9835 11.3745C23.002 11.4456 23.0045 11.5198 22.991 11.592L21.491 19.592C21.4696 19.7066 21.4087 19.8101 21.3191 19.8846C21.2294 19.9591 21.1166 19.9999 21 20H12C11.8834 19.9999 11.7706 19.9591 11.6809 19.8846C11.5913 19.8101 11.5304 19.7066 11.509 19.592L10.01 11.607L9.61 10H8.5C8.36739 10 8.24021 9.94732 8.14645 9.85355C8.05268 9.75979 8 9.63261 8 9.5ZM11.102 12L12.415 19H20.585L21.898 12H11.102ZM13 20C12.4696 20 11.9609 20.2107 11.5858 20.5858C11.2107 20.9609 11 21.4696 11 22C11 22.5304 11.2107 23.0391 11.5858 23.4142C11.9609 23.7893 12.4696 24 13 24C13.5304 24 14.0391 23.7893 14.4142 23.4142C14.7893 23.0391 15 22.5304 15 22C15 21.4696 14.7893 20.9609 14.4142 20.5858C14.0391 20.2107 13.5304 20 13 20ZM20 20C19.4696 20 18.9609 20.2107 18.5858 20.5858C18.2107 20.9609 18 21.4696 18 22C18 22.5304 18.2107 23.0391 18.5858 23.4142C18.9609 23.7893 19.4696 24 20 24C20.5304 24 21.0391 23.7893 21.4142 23.4142C21.7893 23.0391 22 22.5304 22 22C22 21.4696 21.7893 20.9609 21.4142 20.5858C21.0391 20.2107 20.5304 20 20 20ZM13 21C13.2652 21 13.5196 21.1054 13.7071 21.2929C13.8946 21.4804 14 21.7348 14 22C14 22.2652 13.8946 22.5196 13.7071 22.7071C13.5196 22.8946 13.2652 23 13 23C12.7348 23 12.4804 22.8946 12.2929 22.7071C12.1054 22.5196 12 22.2652 12 22C12 21.7348 12.1054 21.4804 12.2929 21.2929C12.4804 21.1054 12.7348 21 13 21ZM20 21C20.2652 21 20.5196 21.1054 20.7071 21.2929C20.8946 21.4804 21 21.7348 21 22C21 22.2652 20.8946 22.5196 20.7071 22.7071C20.5196 22.8946 20.2652 23 20 23C19.7348 23 19.4804 22.8946 19.2929 22.7071C19.1054 22.5196 19 22.2652 19 22C19 21.7348 19.1054 21.4804 19.2929 21.2929C19.4804 21.1054 19.7348 21 20 21Z" fill="white"/>
</svg>
